<!DOCTYPE svg PUBLIC "-//W3C//DTD SVG 1.1//EN" "http://www.w3.org/Graphics/SVG/1.1/DTD/svg11.dtd">
<svg version="1.1" id="IconsRepoEditor" xmlns="http://www.w3.org/2000/svg" xmlns:xlink="http://www.w3.org/1999/xlink" x="0px" y="0px" viewBox="-49 -49 588.00 588.00" style="enable-background:new 0 0 490 490;" xml:space="preserve" width="120px" height="120px" fill="#d7bc74" stroke="#d7bc74" stroke-width="1">
<g id="IconsRepo_bgCarrier"/> <path d="M265.79,179.188l-21.115,19.485l-20.741-19.964c-4.516-4.337-10.916-6.729-18.034-6.729 c-7.537,0-14.251,2.722-18.917,7.656c-10.827,11.544-10.767,29.968,0.164,41.931l57.976,63.913l57.722-63.763 c11.021-12.068,11.051-30.611,0.12-42.26C293.664,169.976,276.647,169.184,265.79,179.188z"/> <path d="M355.633,11.779c-34.17,0-65.872,12.546-91.697,36.293l-19.051,17.616l-18.812-18.079 c-23.657-22.805-56.152-35.366-91.488-35.366c-37.594,0-71.659,14.206-95.959,40.032c-51.441,54.761-51.501,141.703-0.179,197.9 l206.902,228.047l206.184-227.777c51.471-56.361,51.307-143.602-0.598-198.872C425.767,25.911,391.926,11.779,355.633,11.779z M325.501,242.323l-80.347,88.766l-80.646-88.901c-21.623-23.672-21.563-60.369,0.165-83.532 c10.527-11.171,25.152-17.302,41.228-17.302c15.044,0,28.981,5.413,39.224,15.238c22.685-20.816,58.993-19.694,79.928,1.66 C347.109,181.745,347.214,218.561,325.501,242.323z"/> </svg>