<!DOCTYPE svg PUBLIC "-//W3C//DTD SVG 1.1//EN" "http://www.w3.org/Graphics/SVG/1.1/DTD/svg11.dtd">
<svg version="1.1" id="IconsRepoEditor" xmlns="http://www.w3.org/2000/svg" xmlns:xlink="http://www.w3.org/1999/xlink" x="0px" y="0px" viewBox="-49.45 -49.45 593.45 593.45" style="enable-background:new 0 0 494.545 494.545;" xml:space="preserve" width="120px" height="120px" fill="#E7CB7E" stroke="#E7CB7E" stroke-width="1">
<g id="IconsRepo_bgCarrier"/> <path d="M247.265,0C116.42,0,0,78.533,0,140.442c0,44.09,100.112,354.103,247.265,354.103c147.169,0,247.28-310.014,247.28-354.103 C494.545,78.533,378.112,0,247.265,0z M293.552,265.777l9.201,53.593l-48.15-25.309c-2.297-1.211-4.81-1.812-7.338-1.812 c-2.526,0-5.039,0.601-7.336,1.812l-48.152,25.309l9.202-53.593c0.879-5.125-0.818-10.351-4.532-13.981l-38.95-37.955l53.81-7.823 c5.148-0.748,9.587-3.977,11.883-8.64l24.076-48.768l24.076,48.768c2.297,4.663,6.736,7.892,11.884,8.64l53.809,7.823 l-38.948,37.955C294.369,255.426,292.674,260.652,293.552,265.777z M47.351,140.442c0-20.948,71.936-83.511,176.239-92.051v76.876 l-25.031,50.703l-77.253,11.23c-5.95,0.863-10.883,5.032-12.748,10.742c-1.849,5.718-0.308,11.992,3.993,16.184l55.92,54.488 l-13.21,76.945c-1.017,5.919,1.419,11.899,6.274,15.436c4.871,3.545,11.344,4,16.615,1.203l45.439-23.884v104.104 C131.046,407.043,47.351,179.399,47.351,140.442z M270.941,442.417V338.313l45.439,23.884c2.297,1.209,4.825,1.811,7.338,1.811 c3.268,0,6.534-1.017,9.279-3.013c4.855-3.537,7.29-9.518,6.272-15.436l-13.209-76.945l55.921-54.488 c4.299-4.192,5.842-10.466,3.991-16.184c-1.865-5.71-6.798-9.879-12.746-10.742l-77.253-11.23l-25.032-50.703V48.391 c104.319,8.541,176.254,71.104,176.254,92.051C447.195,179.407,363.499,407.051,270.941,442.417z"/> </svg>